<svg class="animated" id="freepik_stories-social-growth" xmlns="http://www.w3.org/2000/svg" viewBox="0 0 500 500" version="1.1" xmlns:xlink="http://www.w3.org/1999/xlink" xmlns:svgjs="http://svgjs.com/svgjs"><style>svg#freepik_stories-social-growth:not(.animated) .animable {opacity: 0;}svg#freepik_stories-social-growth.animated #freepik--background-simple--inject-1--inject-61 {animation: 1s 1 forwards cubic-bezier(.36,-0.01,.5,1.38) slideUp;animation-delay: 0s;}svg#freepik_stories-social-growth.animated #freepik--Clouds--inject-1--inject-61 {animation: 1s 1 forwards cubic-bezier(.36,-0.01,.5,1.38) slideLeft;animation-delay: 0s;}svg#freepik_stories-social-growth.animated #freepik--space-ship--inject-1--inject-61 {animation: 1s 1 forwards cubic-bezier(.36,-0.01,.5,1.38) slideUp;animation-delay: 0s;}            @keyframes slideUp {                0% {                    opacity: 0;                    transform: translateY(30px);                }                100% {                    opacity: 1;                    transform: inherit;                }            }                    @keyframes slideLeft {                0% {                    opacity: 0;                    transform: translateX(-30px);                }                100% {                    opacity: 1;                    transform: translateX(0);                }            }        .animator-hidden { display: none; }</style><!--Social Growth--><g id="freepik--background-simple--inject-1--inject-61" class="animable animator-hidden" style="transform-origin: 248.007px 254.09px;"><path d="M409.44,336.86c-10.12-2.25,8.43-6.75,8.43-6.75s-80.38,3.37-83.75,0,25.29-5.06,25.29-5.06,3.94-6.18,6.75-7.3,9,1.68,12.36,1.68,1.69-4.49,6.75-7.3,9,3.37,14.05,1.68.56-11.8,11.24-19.11S428,300.32,428,300.32c2.83,1.13,6.09,1.27,9.41,2-6.6-27.53-37.59-47.06-38.52-67.33-1.05-22.69,15.7-40.66-2.1-75.65s-24.07-17-59.65-38.76c0,0-19.89-30.26-48.15-32.15s-38.72,9.45-68,13.23S165.48,96,129.89,115.83s-27.21,39.71-26.16,57.68-28.26,48.22-31.4,75.64,16.74,34,18.84,53.9-47.1,37.82-28.26,70a40.82,40.82,0,0,0,12.55,13.73,19.32,19.32,0,0,1,37.4,6.61,36.17,36.17,0,0,1,63,24.21c0,.24,0,.49,0,.73a22,22,0,0,1,6.82-1.09,21.77,21.77,0,0,1,10.56,2.72,27.58,27.58,0,0,1,26.68-20.63h.42v-81.1h24.29V408a16,16,0,0,1,6.81-1.52c.38,0,.76,0,1.13,0V318.21h24.29v95.26a16.46,16.46,0,0,1,16.41-2.14,29.36,29.36,0,0,1,51,6.63,21.2,21.2,0,0,1,7.75-1.47,21.51,21.51,0,0,1,7.3,1.3,34,34,0,0,1,32.45-44.27c.87,0,1.73.05,2.58.11a16.81,16.81,0,0,1,25.63-21,89.07,89.07,0,0,0,11.73-14.75C422.21,337.92,413.29,337.71,409.44,336.86Zm-257.82-92c-6.79-1.51,5.65-4.52,5.65-4.52s-8.65.36-19.17.65c.24,1.93-1.55,4.18-1.55,4.18s-16.38.82-20.07,0,3.07-2.46,3.07-2.46-29.29,1.23-30.52,0,9.22-1.84,9.22-1.84,1.43-2.25,2.46-2.66c.7-.29,2,.11,3.12.38.68-.15,1.44-.29,2.25-.42a3.53,3.53,0,0,1,1.59-2c1.85-1,3.28,1.23,5.12.61s.21-4.3,4.1-7,6.35,2.05,6.35,2.05l.08,0c2.08-.18,5.55,1.29,7.56,1.29,2.26,0,1.13-3,4.52-4.9s6,2.26,9.43,1.13.38-7.92,7.54-12.82,11.69,3.77,11.69,3.77c3.77,1.51,8.67.38,12.82,4.9s-.75,6,1.13,8.3,10.56-1.89,12.82,1.89-2.26,9.42-2.26,9.42S158.4,246.34,151.62,244.83Zm40.39,153a8.95,8.95,0,1,1,9-8.95A9,9,0,0,1,192,397.87Zm17.91-41.54a3.23,3.23,0,1,1-3.23,3.23A3.23,3.23,0,0,1,209.92,356.33Zm-1.08,34.38a5,5,0,1,1,5-5A5,5,0,0,1,208.84,390.71Zm80.21,17.9a4.3,4.3,0,1,1,4.3-4.29A4.29,4.29,0,0,1,289.05,408.61Zm-1.43-15.75A7.88,7.88,0,1,1,295.5,385,7.88,7.88,0,0,1,287.62,392.86Zm24-4.3a3.94,3.94,0,1,1,3.94-3.94A3.93,3.93,0,0,1,311.61,388.56Z" style="fill: #FFFFFF; transform-origin: 248.007px 254.09px;" id="eloefgszryr2g" class="animable"></path><g id="elw015loptn7i"><path d="M409.44,336.86c-10.12-2.25,8.43-6.75,8.43-6.75s-80.38,3.37-83.75,0,25.29-5.06,25.29-5.06,3.94-6.18,6.75-7.3,9,1.68,12.36,1.68,1.69-4.49,6.75-7.3,9,3.37,14.05,1.68.56-11.8,11.24-19.11S428,300.32,428,300.32c2.83,1.13,6.09,1.27,9.41,2-6.6-27.53-37.59-47.06-38.52-67.33-1.05-22.69,15.7-40.66-2.1-75.65s-24.07-17-59.65-38.76c0,0-19.89-30.26-48.15-32.15s-38.72,9.45-68,13.23S165.48,96,129.89,115.83s-27.21,39.71-26.16,57.68-28.26,48.22-31.4,75.64,16.74,34,18.84,53.9-47.1,37.82-28.26,70a40.82,40.82,0,0,0,12.55,13.73,19.32,19.32,0,0,1,37.4,6.61,36.17,36.17,0,0,1,63,24.21c0,.24,0,.49,0,.73a22,22,0,0,1,6.82-1.09,21.77,21.77,0,0,1,10.56,2.72,27.58,27.58,0,0,1,26.68-20.63h.42v-81.1h24.29V408a16,16,0,0,1,6.81-1.52c.38,0,.76,0,1.13,0V318.21h24.29v95.26a16.46,16.46,0,0,1,16.41-2.14,29.36,29.36,0,0,1,51,6.63,21.2,21.2,0,0,1,7.75-1.47,21.51,21.51,0,0,1,7.3,1.3,34,34,0,0,1,32.45-44.27c.87,0,1.73.05,2.58.11a16.81,16.81,0,0,1,25.63-21,89.07,89.07,0,0,0,11.73-14.75C422.21,337.92,413.29,337.71,409.44,336.86Zm-257.82-92c-6.79-1.51,5.65-4.52,5.65-4.52s-8.65.36-19.17.65c.24,1.93-1.55,4.18-1.55,4.18s-16.38.82-20.07,0,3.07-2.46,3.07-2.46-29.29,1.23-30.52,0,9.22-1.84,9.22-1.84,1.43-2.25,2.46-2.66c.7-.29,2,.11,3.12.38.68-.15,1.44-.29,2.25-.42a3.53,3.53,0,0,1,1.59-2c1.85-1,3.28,1.23,5.12.61s.21-4.3,4.1-7,6.35,2.05,6.35,2.05l.08,0c2.08-.18,5.55,1.29,7.56,1.29,2.26,0,1.13-3,4.52-4.9s6,2.26,9.43,1.13.38-7.92,7.54-12.82,11.69,3.77,11.69,3.77c3.77,1.51,8.67.38,12.82,4.9s-.75,6,1.13,8.3,10.56-1.89,12.82,1.89-2.26,9.42-2.26,9.42S158.4,246.34,151.62,244.83Zm40.39,153a8.95,8.95,0,1,1,9-8.95A9,9,0,0,1,192,397.87Zm17.91-41.54a3.23,3.23,0,1,1-3.23,3.23A3.23,3.23,0,0,1,209.92,356.33Zm-1.08,34.38a5,5,0,1,1,5-5A5,5,0,0,1,208.84,390.71Zm80.21,17.9a4.3,4.3,0,1,1,4.3-4.29A4.29,4.29,0,0,1,289.05,408.61Zm-1.43-15.75A7.88,7.88,0,1,1,295.5,385,7.88,7.88,0,0,1,287.62,392.86Zm24-4.3a3.94,3.94,0,1,1,3.94-3.94A3.93,3.93,0,0,1,311.61,388.56Z" style="fill: rgb(255, 255, 255); opacity: 0.5; transform-origin: 248.007px 254.09px;" class="animable" id="elnbs050tq0xn"></path></g></g><g id="freepik--Clouds--inject-1--inject-61" class="animable" style="transform-origin: 242.952px 206.415px;"><path d="M335.73,122.35s-7-13.36-18-5.81-6.39,18-11.61,19.75-9.29-4.65-14.52-1.75-3.49,7.55-7,7.55-9.87-2.9-12.78-1.74-7,7.55-7,7.55-29.61,1.74-26.13,5.23,86.53,0,86.53,0-19.16,4.64-8.71,7,56.92,0,56.92,0,7-8.71,3.48-14.52-16.84.58-19.75-2.9,4.65-5.81-1.74-12.78S341.53,124.67,335.73,122.35Z" style="fill: rgb(255, 255, 255); stroke: rgb(46, 53, 58); stroke-linecap: round; stroke-linejoin: round; transform-origin: 308.153px 137.704px;" id="el7xed9o08rf6" class="animable"></path><g id="elik6vs6kcn5s"><path d="M377.9,150.08a2.77,2.77,0,0,1,0-1.11,7.13,7.13,0,0,0-1-3.39c-3.48-5.81-16.84.58-19.75-2.9s4.65-5.81-1.74-12.78c-4.35-4.75-9.23-5.45-13.74-6.15a14.84,14.84,0,0,0-2.67,1.46c-11,7.55-6.39,18-11.62,19.74s-9.29-4.64-14.52-1.74-3.48,7.55-7,7.55-9.87-2.9-12.77-1.74c-1.77.71-4,3.36-5.42,5.32,19.56-.46,37.51-1.21,37.51-1.21s-19.16,4.64-8.71,7,56.92,0,56.92,0S377.51,155.05,377.9,150.08Z" style="fill: #FFFFFF; opacity: 0.51; mix-blend-mode: multiply; transform-origin: 332.785px 142.464px;" class="animable" id="elwvtk54vaijd"></path></g><path d="M149.07,285.9s-4.31-8.26-11.14-3.59-4,11.14-7.19,12.22-5.75-2.88-9-1.08-2.16,4.67-4.31,4.67-6.11-1.79-7.91-1.08-4.31,4.68-4.31,4.68S86.9,302.79,89.06,305s53.54,0,53.54,0-11.86,2.87-5.39,4.31,35.22,0,35.22,0,4.31-5.39,2.16-9-10.43.36-12.22-1.8,2.87-3.59-1.08-7.9S152.66,287.34,149.07,285.9Z" style="fill: rgb(255, 255, 255); stroke: rgb(46, 53, 58); stroke-linecap: round; stroke-linejoin: round; transform-origin: 132.037px 295.415px;" id="eli53iaor7vag" class="animable"></path><g id="elwcqmpmrqqv"><path d="M172.43,309.26s4.31-5.39,2.16-9-10.43.36-12.22-1.8,2.87-3.59-1.08-7.9c-3.8-4.15-8.26-3.32-11.79-4.53-4.74,4.89-2.63,10.82-5.57,11.88-3.23,1.18-5.75-3.13-9-1.17s-2.16,5.08-4.31,5.08-6.11-1.95-7.91-1.17-4.07,4.67-4.29,5.05c12.47-.28,24.16-.77,24.16-.77s-11.86,2.87-5.39,4.31a35,35,0,0,0,5.49.53c7.53-.26,13.09-.51,13.09-.51s-.86.22-2,.58C163.05,309.73,172.43,309.26,172.43,309.26Z" style="fill: #FFFFFF; opacity: 0.51; mix-blend-mode: multiply; transform-origin: 146.805px 297.935px;" class="animable" id="elfw535vb33a"></path></g><path d="M197.07,107.9s-4.31-8.26-11.14-3.59-4,11.14-7.19,12.22-5.75-2.88-9-1.08-2.16,4.67-4.31,4.67-6.11-1.8-7.91-1.08-4.31,4.68-4.31,4.68-18.33,1.07-16.17,3.23,53.54,0,53.54,0-11.86,2.87-5.39,4.31,35.22,0,35.22,0,4.31-5.39,2.16-9-10.43.36-12.22-1.8,2.87-3.59-1.08-7.9S200.66,109.34,197.07,107.9Z" style="fill: rgb(255, 255, 255); stroke: rgb(46, 53, 58); stroke-linecap: round; stroke-linejoin: round; transform-origin: 180.017px 117.39px;" id="el4xq3mzzbgop" class="animable"></path><g id="el2npsvp5cliv"><path d="M220.43,131.26s4.31-5.39,2.16-9-10.43.36-12.22-1.8,2.87-3.59-1.08-7.9c-3.26-3.56-7-3.45-10.24-4.11-6.54,4.66-3.78,11-7,12.06s-5.75-2.88-9-1.08-2.15,4.67-4.31,4.67-6.11-1.8-7.91-1.08-4.31,4.68-4.31,4.68h0c12.43-.28,24.07-.77,24.07-.77s-11.86,2.87-5.39,4.31a14.88,14.88,0,0,0,1.8.27c9.4-.26,16.93-.58,16.93-.58s-1.57.38-3.25.93C210.29,131.77,220.43,131.26,220.43,131.26Z" style="fill: #FFFFFF; opacity: 0.51; mix-blend-mode: multiply; transform-origin: 194.855px 120.155px;" class="animable" id="el16cwtveakjv"></path></g><path d="M370.9,152.27s-4.31-8.26-11.14-3.59-3.95,11.14-7.18,12.22-5.75-2.88-9-1.08-2.15,4.67-4.31,4.67-6.11-1.8-7.91-1.08-4.31,4.67-4.31,4.67-18.33,1.08-16.17,3.24,53.54,0,53.54,0-11.85,2.87-5.39,4.31,35.22,0,35.22,0,4.31-5.39,2.16-9-10.42.36-12.22-1.8,2.87-3.59-1.08-7.91S374.5,153.71,370.9,152.27Z" style="fill: rgb(255, 255, 255); stroke: rgb(46, 53, 58); stroke-linecap: round; stroke-linejoin: round; transform-origin: 353.857px 161.76px;" id="elwoc9gkw9smm" class="animable"></path><g id="elztkm0abqhr"><path d="M394.26,175.63s4.31-5.39,2.16-9-10.42.36-12.22-1.8,2.57-3.51-.77-7.53a9.69,9.69,0,0,1-1.19-.38,11.88,11.88,0,0,0-1.21-1.77c-2.94-1.92-6.1-1.8-8.81-2.48a8.83,8.83,0,0,0-1.12.66c-6.83,4.67-4,11.14-7.19,12.21s-5.75-2.87-9-1.07-2.16,4.67-4.32,4.67-6.11-1.8-7.9-1.08c-1.35.54-3.1,2.89-3.89,4,13-.27,25.61-.8,25.61-.8s-11.85,2.87-5.39,4.31a58.79,58.79,0,0,0,9.57.63l7.16-.27s-.4.09-1,.26C384.29,176.13,394.26,175.63,394.26,175.63Z" style="fill: #FFFFFF; opacity: 0.51; mix-blend-mode: multiply; transform-origin: 367.91px 164.439px;" class="animable" id="el5znvwndl0td"></path></g></g><g id="freepik--space-ship--inject-1--inject-61" class="animable" style="transform-origin: 248.565px 239.972px;"><line x1="236.72" y1="138.63" x2="236.72" y2="142.32" style="fill: none; stroke: rgb(255, 255, 255); stroke-linecap: round; stroke-linejoin: round; transform-origin: 236.72px 140.475px;" id="elmlp9jxd1lid" class="animable"></line><path d="M294.06,252.84l34,67a3.27,3.27,0,0,1-2.91,4.74H279.65A4.62,4.62,0,0,1,275,320V254.47Z" style="fill: rgb(46, 53, 58); stroke: rgb(46, 53, 58); stroke-linecap: round; stroke-linejoin: round; transform-origin: 301.705px 288.71px;" id="ell5saa3f9lj" class="animable"></path><path d="M320.4,324.47l-36-70.8-9.37.8V320a4.62,4.62,0,0,0,4.62,4.62h40.81A.84.84,0,0,0,320.4,324.47Z" style="fill: rgb(255, 255, 255); stroke: rgb(0, 0, 0); stroke-miterlimit: 10; transform-origin: 297.745px 289.145px;" id="elnd1xaz6y1z" class="animable"></path><path d="M203.94,252.84l-34,67a3.27,3.27,0,0,0,2.91,4.74h45.52A4.62,4.62,0,0,0,223,320V254.47Z" style="fill: rgb(46, 53, 58); stroke: rgb(46, 53, 58); stroke-linecap: round; stroke-linejoin: round; transform-origin: 196.295px 288.71px;" id="ell4dv7fsk8ud" class="animable"></path><path d="M177.59,324.47l36-70.8,9.36.8V320a4.62,4.62,0,0,1-4.62,4.62H177.53Z" style="fill: rgb(255, 255, 255); stroke: rgb(0, 0, 0); stroke-miterlimit: 10; transform-origin: 200.24px 289.145px;" id="ely6njmu2q33b" class="animable"></path><path d="M213.6,253.67l-27.5,54.08c9.65-6.88,22.23-13.8,36.86-17.09V254.47Z" style="fill: #FFFFFF; mix-blend-mode: multiply; transform-origin: 204.53px 280.71px;" id="elpy2ujjwut6p" class="animable"></path><polygon points="233.23 297.23 221.11 318.21 245.34 318.21 233.23 297.23" style="fill: #FFFFFF; stroke: rgb(46, 53, 58); stroke-linecap: round; stroke-linejoin: round; transform-origin: 233.225px 307.72px;" id="el4rw2xvx83pd" class="animable"></polygon><polygon points="264.95 297.23 252.84 318.21 277.07 318.21 264.95 297.23" style="fill: #FFFFFF; stroke: rgb(46, 53, 58); stroke-linecap: round; stroke-linejoin: round; transform-origin: 264.955px 307.72px;" id="elaxg4ohtantn" class="animable"></polygon><rect x="220.61" y="317.99" width="25.05" height="4.52" style="fill: rgb(46, 53, 58); stroke: rgb(46, 53, 58); stroke-linecap: round; stroke-linejoin: round; transform-origin: 233.135px 320.25px;" id="elyckqgg7xioo" class="animable"></rect><rect x="252.31" y="317.99" width="25.05" height="4.52" style="fill: rgb(46, 53, 58); stroke: rgb(46, 53, 58); stroke-linecap: round; stroke-linejoin: round; transform-origin: 264.835px 320.25px;" id="ellsjw12xl5f" class="animable"></rect><path d="M253.34,84.81a5.84,5.84,0,0,0-8.81,0C233,98.08,202.72,136.3,202.72,172.38V277.85L219.4,308.3h59.31l16.68-30.45V172.38C295.39,136.29,264.94,98.06,253.34,84.81Z" style="fill: rgb(255, 255, 255); stroke: rgb(0, 0, 0); stroke-miterlimit: 10; transform-origin: 249.055px 195.552px;" id="el5z55xntenog" class="animable"></path><path d="M248.68,87c0-1.88-5.32,9.33-9.07,14.23.06-.42.13-.83.19-1.25,0,0-22.29,28.42-29,55.17a80.7,80.7,0,0,0-1.67,8.35c-.5,3.36-1.12,78.52-1.45,123.46L219.4,308.3h28.95c-.58-2.19,1-12.28.33-14.92Z" style="fill: #FFFFFF; transform-origin: 228.264px 197.545px;" id="elu4xkk1unu6g" class="animable"></path><circle cx="213.39" cy="274.53" r="1.49" style="fill: none; stroke: rgb(46, 53, 58); stroke-linecap: round; stroke-linejoin: round; transform-origin: 213.39px 274.53px;" id="elobpvq5byn0d" class="animable"></circle><circle cx="221.51" cy="274.53" r="1.49" style="fill: none; stroke: rgb(46, 53, 58); stroke-linecap: round; stroke-linejoin: round; transform-origin: 221.51px 274.53px;" id="el9fl8msu7eoc" class="animable"></circle><circle cx="229.63" cy="274.53" r="1.49" style="fill: none; stroke: rgb(46, 53, 58); stroke-linecap: round; stroke-linejoin: round; transform-origin: 229.63px 274.53px;" id="elpkd4zs95jx" class="animable"></circle><circle cx="237.75" cy="274.53" r="1.49" style="fill: none; stroke: rgb(46, 53, 58); stroke-linecap: round; stroke-linejoin: round; transform-origin: 237.75px 274.53px;" id="elak077oatkru" class="animable"></circle><circle cx="260.11" cy="274.53" r="1.49" style="fill: none; stroke: rgb(46, 53, 58); stroke-linecap: round; stroke-linejoin: round; transform-origin: 260.11px 274.53px;" id="el5632z69coev" class="animable"></circle><circle cx="268.23" cy="274.53" r="1.49" style="fill: none; stroke: rgb(46, 53, 58); stroke-linecap: round; stroke-linejoin: round; transform-origin: 268.23px 274.53px;" id="elkcyl6stekvk" class="animable"></circle><circle cx="276.35" cy="274.53" r="1.49" style="fill: none; stroke: rgb(46, 53, 58); stroke-linecap: round; stroke-linejoin: round; transform-origin: 276.35px 274.53px;" id="elo6usz1d93jb" class="animable"></circle><circle cx="284.47" cy="274.53" r="1.49" style="fill: none; stroke: rgb(46, 53, 58); stroke-linecap: round; stroke-linejoin: round; transform-origin: 284.47px 274.53px;" id="elb2up3q038w" class="animable"></circle><line x1="208.15" y1="177.87" x2="208.15" y2="276.77" style="fill: none; stroke: rgb(46, 53, 58); stroke-linecap: round; stroke-linejoin: round; transform-origin: 208.15px 227.32px;" id="elu50afex4w8h" class="animable"></line><path d="M217.13,137.79c-4.37,9.7-7.71,20.13-8.69,30.51" style="fill: none; stroke: rgb(46, 53, 58); stroke-linecap: round; stroke-linejoin: round; transform-origin: 212.785px 153.045px;" id="elchl3q18vk8m" class="animable"></path><path d="M253.56,91.64a5,5,0,0,0-8,0,225.24,225.24,0,0,0-23.78,36.66" style="fill: none; stroke: rgb(46, 53, 58); stroke-linecap: round; stroke-linejoin: round; transform-origin: 237.67px 108.97px;" id="elmyhf4pj9vjh" class="animable"></path><path d="M269.07,187.23h0a13.35,13.35,0,0,1-13.35-13.34h0a13.35,13.35,0,0,1,13.35-13.35h0a13.35,13.35,0,0,1,13.34,13.35h0A13.34,13.34,0,0,1,269.07,187.23Z" style="fill: rgb(46, 53, 58); stroke: rgb(46, 53, 58); stroke-linecap: round; stroke-linejoin: round; transform-origin: 269.065px 173.885px;" id="el9z35mx1vzmj" class="animable"></path><path d="M269.07,188a14.14,14.14,0,1,1,14.13-14.13A14.15,14.15,0,0,1,269.07,188Zm0-26.69a12.56,12.56,0,1,0,12.56,12.56A12.57,12.57,0,0,0,269.07,161.33Z" style="fill: rgb(255, 255, 255); stroke: rgb(46, 53, 58); stroke-miterlimit: 10; stroke-width: 0.75px; transform-origin: 269.06px 173.86px;" id="eltcq434oxplr" class="animable"></path><path d="M276.76,173.56a7.19,7.19,0,0,0-14.36-.13c0,.11,0,.21,0,.31a7.13,7.13,0,0,0,1,3.69l-1.3,3.82,4-1.26a7.28,7.28,0,0,0,3.48.89,7.16,7.16,0,0,0,7.18-7.14Zm-7.18,6.18a6,6,0,0,1-3.33-1l-2.32.74.75-2.23a6,6,0,0,1-1.15-3.52,5.63,5.63,0,0,1,0-.58,6,6,0,0,1,12,.12c0,.15,0,.31,0,.46A6,6,0,0,1,269.58,179.74Z" style="fill: rgb(255, 255, 255); fill-rule: evenodd; transform-origin: 269.43px 173.964px;" id="elerdy55fbct4" class="animable"></path><path d="M272.87,175.18c-.18-.08-1-.51-1.2-.56s-.28-.09-.4.08-.46.57-.56.69a.27.27,0,0,1-.38,0,4.72,4.72,0,0,1-1.42-.87,5.12,5.12,0,0,1-1-1.21c-.1-.17,0-.26.08-.35s.17-.21.26-.31l.07-.08.11-.21a.31.31,0,0,0,0-.31c0-.08-.39-1-.54-1.3s-.29-.29-.4-.29h-.33a.63.63,0,0,0-.47.22,1.92,1.92,0,0,0-.62,1.46,2.34,2.34,0,0,0,.09.59,3.77,3.77,0,0,0,.63,1.21,7.2,7.2,0,0,0,3,2.64c1.79.7,1.79.47,2.11.44a1.75,1.75,0,0,0,1.19-.83,1.49,1.49,0,0,0,.11-.83A1.11,1.11,0,0,0,272.87,175.18Z" style="fill: rgb(255, 255, 255); fill-rule: evenodd; transform-origin: 269.643px 173.77px;" id="el3693qrb7gmw" class="animable"></path><path d="M250.24,216.57h0a13.35,13.35,0,0,1-13.35-13.35h0a13.35,13.35,0,0,1,13.35-13.34h0a13.34,13.34,0,0,1,13.34,13.34h0A13.35,13.35,0,0,1,250.24,216.57Z" style="fill: rgb(46, 53, 58); stroke: rgb(46, 53, 58); stroke-linecap: round; stroke-linejoin: round; transform-origin: 250.235px 203.225px;" id="eli4wsrzs1tq" class="animable"></path><path d="M250.24,217.35a14.13,14.13,0,1,1,14.13-14.13A14.15,14.15,0,0,1,250.24,217.35Zm0-26.69a12.56,12.56,0,0,0,0,25.12h0a12.56,12.56,0,0,0,0-25.12Z" style="fill: rgb(255, 255, 255); stroke: rgb(46, 53, 58); stroke-miterlimit: 10; stroke-width: 0.75px; transform-origin: 250.24px 203.22px;" id="elya7x69cnuno" class="animable"></path><path d="M258.21,199.19a2.08,2.08,0,0,0-1.47-1.48,60.53,60.53,0,0,0-13,0,2.08,2.08,0,0,0-1.47,1.48,23.38,23.38,0,0,0,0,8.06,2.08,2.08,0,0,0,1.47,1.48,60.53,60.53,0,0,0,13,0,2.08,2.08,0,0,0,1.47-1.48,23.38,23.38,0,0,0,0-8.06Z" style="fill: rgb(255, 255, 255); transform-origin: 250.24px 203.22px;" id="elggmqvdl0lp" class="animable"></path><polygon points="248.54 205.7 248.54 200.75 252.89 203.22 248.54 205.7" style="fill: rgb(46, 53, 58); transform-origin: 250.715px 203.225px;" id="el8ot0zfak95q" class="animable"></polygon><path d="M250.24,156.15h0a13.35,13.35,0,0,1-13.35-13.34h0a13.35,13.35,0,0,1,13.35-13.35h0a13.35,13.35,0,0,1,13.34,13.35h0A13.34,13.34,0,0,1,250.24,156.15Z" style="fill: rgb(46, 53, 58); stroke: rgb(46, 53, 58); stroke-linecap: round; stroke-linejoin: round; transform-origin: 250.235px 142.805px;" id="eli6prdgff6yi" class="animable"></path><path d="M250.24,156.94a14.13,14.13,0,1,1,14.13-14.13A14.15,14.15,0,0,1,250.24,156.94Zm0-26.69a12.56,12.56,0,1,0,12.56,12.56A12.57,12.57,0,0,0,250.24,130.25Z" style="fill: rgb(255, 255, 255); stroke: rgb(46, 53, 58); stroke-miterlimit: 10; stroke-width: 0.75px; transform-origin: 250.24px 142.81px;" id="elo3s09vo9n0o" class="animable"></path><path d="M248.12,150.88h3.25v-8.14h2.27l.24-2.72h-2.51v-1.55c0-.65.13-.9.75-.9h1.76v-2.83h-2.25c-2.42,0-3.51,1.07-3.51,3.1V140h-1.69v2.75h1.69Z" style="fill: rgb(255, 255, 255); transform-origin: 250.155px 142.81px;" id="elhnqac01he2d" class="animable"></path><path d="M231.16,249.48h0a13.35,13.35,0,0,1-13.35-13.34h0a13.35,13.35,0,0,1,13.35-13.35h0a13.35,13.35,0,0,1,13.34,13.35h0A13.34,13.34,0,0,1,231.16,249.48Z" style="fill: rgb(46, 53, 58); stroke: rgb(46, 53, 58); stroke-linecap: round; stroke-linejoin: round; transform-origin: 231.155px 236.135px;" id="elksoh0qkqi3" class="animable"></path><path d="M231.16,250.27a14.14,14.14,0,1,1,14.13-14.13A14.15,14.15,0,0,1,231.16,250.27Zm0-26.69a12.56,12.56,0,1,0,12.56,12.56A12.57,12.57,0,0,0,231.16,223.58Z" style="fill: rgb(255, 255, 255); stroke: rgb(46, 53, 58); stroke-miterlimit: 10; stroke-width: 0.75px; transform-origin: 231.15px 236.13px;" id="el9auazd7ep6g" class="animable"></path><path d="M231.16,230.14c2,0,2.18,0,3,0a4,4,0,0,1,1.36.25,2.46,2.46,0,0,1,1.39,1.39,4,4,0,0,1,.25,1.36c0,.77,0,1,0,3s0,2.18,0,3a4,4,0,0,1-.25,1.36,2.46,2.46,0,0,1-1.39,1.39,4,4,0,0,1-1.36.25c-.77,0-1,0-3,0s-2.19,0-3,0a4,4,0,0,1-1.36-.25,2.23,2.23,0,0,1-.84-.55,2.27,2.27,0,0,1-.55-.84,4,4,0,0,1-.25-1.36c0-.77,0-1,0-3s0-2.19,0-3a4,4,0,0,1,.25-1.36A2.27,2.27,0,0,1,226,231a2.23,2.23,0,0,1,.84-.55,4,4,0,0,1,1.36-.25c.77,0,1,0,3,0m0-1.32c-2,0-2.24,0-3,0a5.56,5.56,0,0,0-1.78.34,3.84,3.84,0,0,0-2.14,2.14,5.56,5.56,0,0,0-.34,1.78c0,.78,0,1,0,3s0,2.23,0,3a5.56,5.56,0,0,0,.34,1.78,3.76,3.76,0,0,0,2.14,2.14,5.56,5.56,0,0,0,1.78.34c.78,0,1,0,3,0s2.23,0,3,0a5.56,5.56,0,0,0,1.78-.34,3.68,3.68,0,0,0,2.14-2.14,5.56,5.56,0,0,0,.34-1.78c0-.78,0-1,0-3s0-2.24,0-3a5.56,5.56,0,0,0-.34-1.78A3.76,3.76,0,0,0,236,229.2a5.56,5.56,0,0,0-1.78-.34c-.78,0-1,0-3,0" style="fill: rgb(255, 255, 255); transform-origin: 231.2px 236.13px;" id="el0t72n5a4c7o" class="animable"></path><path d="M231.16,232.38a3.76,3.76,0,1,0,3.75,3.76,3.76,3.76,0,0,0-3.75-3.76m0,6.19a2.44,2.44,0,1,1,2.44-2.43,2.43,2.43,0,0,1-2.44,2.43" style="fill: rgb(255, 255, 255); transform-origin: 231.15px 236.14px;" id="elyiz719hqc8" class="animable"></path><path d="M235.94,232.23a.88.88,0,1,1-.88-.88.88.88,0,0,1,.88.88" style="fill: rgb(255, 255, 255); transform-origin: 235.06px 232.23px;" id="elmmdqo1hzz4g" class="animable"></path><path d="M230.16,187.23h0a13.35,13.35,0,0,1-13.35-13.34h0a13.35,13.35,0,0,1,13.35-13.35h0a13.35,13.35,0,0,1,13.34,13.35h0A13.34,13.34,0,0,1,230.16,187.23Z" style="fill: rgb(46, 53, 58); stroke: rgb(46, 53, 58); stroke-linecap: round; stroke-linejoin: round; transform-origin: 230.155px 173.885px;" id="elupfechhrbqh" class="animable"></path><path d="M230.16,188a14.14,14.14,0,1,1,14.13-14.13A14.14,14.14,0,0,1,230.16,188Zm0-26.69a12.56,12.56,0,1,0,12.56,12.56A12.57,12.57,0,0,0,230.16,161.33Z" style="fill: rgb(255, 255, 255); stroke: rgb(46, 53, 58); stroke-miterlimit: 10; stroke-width: 0.75px; transform-origin: 230.15px 173.86px;" id="elrnf4drgtwao" class="animable"></path><path d="M223.05,178.35A8.29,8.29,0,0,0,235.81,171a6,6,0,0,0,1.46-1.52,5.66,5.66,0,0,1-1.68.46,2.89,2.89,0,0,0,1.28-1.61A5.83,5.83,0,0,1,235,169a2.92,2.92,0,0,0-5,2.66,8.26,8.26,0,0,1-6-3.05,2.92,2.92,0,0,0,.9,3.9,2.93,2.93,0,0,1-1.32-.37,2.92,2.92,0,0,0,2.34,2.9,2.92,2.92,0,0,1-1.32.05,2.93,2.93,0,0,0,2.73,2A5.85,5.85,0,0,1,223.05,178.35Z" style="fill: rgb(255, 255, 255); transform-origin: 230.16px 173.851px;" id="elfrxfn6tjmus" class="animable"></path><path d="M267.72,249.48h0a13.35,13.35,0,0,1-13.35-13.34h0a13.35,13.35,0,0,1,13.35-13.35h0a13.35,13.35,0,0,1,13.34,13.35h0A13.34,13.34,0,0,1,267.72,249.48Z" style="fill: rgb(46, 53, 58); stroke: rgb(46, 53, 58); stroke-linecap: round; stroke-linejoin: round; transform-origin: 267.715px 236.135px;" id="elbzrtie4xzbh" class="animable"></path><path d="M267.72,250.27a14.14,14.14,0,1,1,14.13-14.13A14.15,14.15,0,0,1,267.72,250.27Zm0-26.69a12.56,12.56,0,1,0,12.56,12.56A12.57,12.57,0,0,0,267.72,223.58Z" style="fill: rgb(255, 255, 255); stroke: rgb(46, 53, 58); stroke-miterlimit: 10; stroke-width: 0.75px; transform-origin: 267.71px 236.13px;" id="elhooabbreeo7" class="animable"></path><rect x="261.29" y="232.85" width="2.76" height="8.92" style="fill: rgb(255, 255, 255); transform-origin: 262.67px 237.31px;" id="elmf6r5zn3mb" class="animable"></rect><path d="M262.66,231.68a1.65,1.65,0,0,0,0-3.29,1.65,1.65,0,0,0,0,3.29Z" style="fill: rgb(255, 255, 255); transform-origin: 262.66px 230.035px;" id="el9aavjbl5tv" class="animable"></path><path d="M268.47,237.09c0-1.26.58-2,1.68-2s1.51.72,1.51,2v4.68h2.75v-5.65c0-2.39-1.36-3.55-3.25-3.55a3.12,3.12,0,0,0-2.69,1.48v-1.2h-2.65v8.92h2.65Z" style="fill: rgb(255, 255, 255); transform-origin: 270.115px 237.17px;" id="el056x5tv25v1q" class="animable"></path><path d="M249.06,326.83h0a2,2,0,0,1-2-2L245,254.75a4.07,4.07,0,0,1,4.08-4.08h0a4.07,4.07,0,0,1,4.07,4.08l-2.08,70.08A2,2,0,0,1,249.06,326.83Z" style="fill: rgb(46, 53, 58); stroke: rgb(46, 53, 58); stroke-linecap: round; stroke-linejoin: round; transform-origin: 249.075px 288.75px;" id="elx964h34d4h" class="animable"></path><line x1="249.13" y1="362.65" x2="249.13" y2="367.32" style="fill: none; stroke: rgb(46, 53, 58); stroke-linecap: round; stroke-linejoin: round; transform-origin: 249.13px 364.985px;" id="elz4bgb0hsqbf" class="animable"></line><path d="M244.53,84.82A236.56,236.56,0,0,0,224.15,112h49.69a235.24,235.24,0,0,0-20.5-27.22A5.84,5.84,0,0,0,244.53,84.82Z" style="fill: rgb(46, 53, 58); stroke: rgb(46, 53, 58); stroke-linecap: round; stroke-linejoin: round; transform-origin: 248.995px 97.3971px;" id="elst3cpuoibs" class="animable"></path><circle cx="236.77" cy="109.15" r="1.49" style="fill: rgb(255, 255, 255); transform-origin: 236.77px 109.15px;" id="el47me9fmkdd4" class="animable"></circle><path d="M246.38,109.15a1.5,1.5,0,1,1-1.49-1.5A1.49,1.49,0,0,1,246.38,109.15Z" style="fill: rgb(255, 255, 255); transform-origin: 244.88px 109.15px;" id="eln6g9u1e571s" class="animable"></path><circle cx="253" cy="109.15" r="1.49" style="fill: rgb(255, 255, 255); transform-origin: 253px 109.15px;" id="el2mg3e1cw3vs" class="animable"></circle><circle cx="261.12" cy="109.15" r="1.49" style="fill: rgb(255, 255, 255); transform-origin: 261.12px 109.15px;" id="elg1hjolduxq" class="animable"></circle><path d="M233.11,109.33s10-16.09,14.07-21" style="fill: none; stroke: rgb(255, 255, 255); stroke-linecap: round; stroke-linejoin: round; transform-origin: 240.145px 98.83px;" id="el1ivlwe7r2cu" class="animable"></path><polygon points="278.71 308.3 295.39 277.85 202.72 277.85 219.4 308.3 278.71 308.3" style="fill: rgb(46, 53, 58); stroke: rgb(46, 53, 58); stroke-linecap: round; stroke-linejoin: round; transform-origin: 249.055px 293.075px;" id="els51zqzxsqg" class="animable"></polygon><path d="M221.94,291.79a.5.5,0,0,0-.26.66l1.5,3.51a.5.5,0,0,0,.46.3.45.45,0,0,0,.2,0,.5.5,0,0,0,.26-.66l-1.5-3.51A.51.51,0,0,0,221.94,291.79Z" style="fill: rgb(255, 255, 255); transform-origin: 222.89px 294.014px;" id="elpjh548hatc" class="animable"></path><path d="M224.49,285.83a.52.52,0,0,0,.46.3.46.46,0,0,0,.2-.05.5.5,0,0,0,.26-.66l-3.33-7.57H221Z" style="fill: rgb(255, 255, 255); transform-origin: 223.226px 281.99px;" id="el7zvinedx4ij" class="animable"></path><path d="M272.26,294.43a.52.52,0,0,0,.21,0,.48.48,0,0,0,.45-.28l7.64-16.34h-1.11L272,293.76A.5.5,0,0,0,272.26,294.43Z" style="fill: rgb(255, 255, 255); transform-origin: 276.257px 286.125px;" id="elckjdnjd08b7" class="animable"></path><path d="M223.51,307.4a.5.5,0,0,0,.46.3.48.48,0,0,0,.2,0,.5.5,0,0,0,.26-.66l-12.71-29.15h-1.09Z" style="fill: rgb(255, 255, 255); transform-origin: 217.551px 292.8px;" id="el7obad31ohna" class="animable"></path><path d="M286.3,277.85l-13.15,26.93a.5.5,0,0,0,.23.67.42.42,0,0,0,.22.05.48.48,0,0,0,.44-.28l13.37-27.37Z" style="fill: rgb(255, 255, 255); transform-origin: 280.254px 291.675px;" id="eljq44674w0z" class="animable"></path><path d="M220.71,290.2a.5.5,0,0,0,.46.3.45.45,0,0,0,.2,0,.5.5,0,0,0,.26-.66l-5.11-11.95h-1.09Z" style="fill: rgb(255, 255, 255); transform-origin: 218.551px 284.201px;" id="el19zz6g0rlpc" class="animable"></path><line x1="297.49" y1="190.93" x2="297.49" y2="194.23" style="fill: none; stroke: rgb(46, 53, 58); stroke-linecap: round; stroke-linejoin: round; transform-origin: 297.49px 192.58px;" id="elovfzqkqmov" class="animable"></line><line x1="297.49" y1="171.51" x2="297.49" y2="188.73" style="fill: none; stroke: rgb(46, 53, 58); stroke-linecap: round; stroke-linejoin: round; transform-origin: 297.49px 180.12px;" id="elgin0ylzhrzj" class="animable"></line><line x1="299.45" y1="207.76" x2="299.45" y2="221.46" style="fill: none; stroke: rgb(46, 53, 58); stroke-linecap: round; stroke-linejoin: round; transform-origin: 299.45px 214.61px;" id="el6mbgjfodeuf" class="animable"></line><path d="M299.11,176.1v29.24s.75,0,1.13-2.09-.38-6.26.57-8,2.28-2.85,2.85-4.56-1.33-3-.57-5.89,4-1.33,3.42-5.13c-.3-2-2.52-2.7-4.07-3.58a2.5,2.5,0,0,1-1.2-1.11c-.31-.78.67-2.56,0-3.14s-1.67.35-2,1C298.83,173.79,299.11,175.13,299.11,176.1Z" style="fill: rgb(255, 255, 255); stroke: rgb(46, 53, 58); stroke-miterlimit: 10; transform-origin: 302.798px 188.499px;" id="el6zc5gyz32wt" class="animable"></path><line x1="172.35" y1="342.6" x2="172.35" y2="380.19" style="fill: none; stroke: rgb(46, 53, 58); stroke-linecap: round; stroke-linejoin: round; transform-origin: 172.35px 361.395px;" id="elvpri5c5tk7j" class="animable"></line><path d="M172.41,326.26v14.58s-.37,0-.56-1,.19-3.12-.29-4a14.85,14.85,0,0,1-1.42-2.27c-.28-.85.66-1.52.28-2.94s-2-.66-1.7-2.56c.15-1,1.26-1.34,2-1.78a1.26,1.26,0,0,0,.6-.56c.15-.39-.33-1.27,0-1.56s.83.17,1,.5A4.33,4.33,0,0,1,172.41,326.26Z" style="fill: rgb(255, 255, 255); stroke: rgb(46, 53, 58); stroke-miterlimit: 10; transform-origin: 170.564px 332.459px;" id="el1xoq1bapki1" class="animable"></path><line x1="198.91" y1="177.17" x2="198.91" y2="192.5" style="fill: none; stroke: rgb(46, 53, 58); stroke-linecap: round; stroke-linejoin: round; transform-origin: 198.91px 184.835px;" id="elnl2ikhbnvxl" class="animable"></line><line x1="198.91" y1="195.86" x2="198.91" y2="201.47" style="fill: none; stroke: rgb(46, 53, 58); stroke-linecap: round; stroke-linejoin: round; transform-origin: 198.91px 198.665px;" id="eli45ii5c9xo" class="animable"></line><line x1="197.08" y1="228.59" x2="197.08" y2="234.2" style="fill: none; stroke: rgb(46, 53, 58); stroke-linecap: round; stroke-linejoin: round; transform-origin: 197.08px 231.395px;" id="elk262y3xc80m" class="animable"></line><path d="M197.47,178.35v48s-.76,0-1.14-3.43.38-10.3-.57-13.1-2.28-4.68-2.85-7.49,1.33-5,.57-9.67-4-2.19-3.42-8.43c.3-3.31,2.52-4.44,4.07-5.89a3.56,3.56,0,0,0,1.2-1.82c.31-1.28-.67-4.21,0-5.15s1.68.57,2,1.66C197.74,174.55,197.47,176.76,197.47,178.35Z" style="fill: rgb(255, 255, 255); stroke: rgb(46, 53, 58); stroke-miterlimit: 10; transform-origin: 193.774px 198.712px;" id="elrq48qhyl2p" class="animable"></path><line x1="249.13" y1="331.16" x2="249.13" y2="359.15" style="fill: none; stroke: rgb(46, 53, 58); stroke-linecap: round; stroke-linejoin: round; transform-origin: 249.13px 345.155px;" id="elviwt2dro6m" class="animable"></line><line x1="202.32" y1="310.46" x2="202.32" y2="313.76" style="fill: none; stroke: rgb(46, 53, 58); stroke-linecap: round; stroke-linejoin: round; transform-origin: 202.32px 312.11px;" id="elxj2kki2es6h" class="animable"></line><line x1="202.32" y1="291.04" x2="202.32" y2="308.26" style="fill: none; stroke: rgb(46, 53, 58); stroke-linecap: round; stroke-linejoin: round; transform-origin: 202.32px 299.65px;" id="elfnyzne1aoi" class="animable"></line><line x1="200.35" y1="327.28" x2="200.35" y2="359.53" style="fill: none; stroke: rgb(46, 53, 58); stroke-linecap: round; stroke-linejoin: round; transform-origin: 200.35px 343.405px;" id="eldn7n6zijae6" class="animable"></line><path d="M200.7,295.63v29.24s-.76,0-1.14-2.09.38-6.27-.57-8-2.28-2.85-2.85-4.56,1.33-3,.57-5.89-4-1.33-3.42-5.13c.3-2,2.52-2.7,4.07-3.59a2.43,2.43,0,0,0,1.2-1.1c.31-.78-.67-2.56,0-3.14s1.68.35,2,1C201,293.32,200.7,294.66,200.7,295.63Z" style="fill: rgb(255, 255, 255); stroke: rgb(46, 53, 58); stroke-miterlimit: 10; transform-origin: 197.01px 308.029px;" id="elzdpw0uly3cl" class="animable"></path><line x1="324.78" y1="342.6" x2="324.78" y2="358.06" style="fill: none; stroke: rgb(46, 53, 58); stroke-linecap: round; stroke-linejoin: round; transform-origin: 324.78px 350.33px;" id="el9koglnq4kho" class="animable"></line><path d="M324.72,326.26v14.58s.38,0,.57-1-.19-3.12.28-4a14.85,14.85,0,0,0,1.42-2.27c.28-.85-.66-1.52-.28-2.94s2-.66,1.7-2.56c-.15-1-1.25-1.34-2-1.78a1.26,1.26,0,0,1-.6-.56c-.15-.39.34-1.27,0-1.56s-.83.17-1,.5A4.13,4.13,0,0,0,324.72,326.26Z" style="fill: rgb(255, 255, 255); stroke: rgb(46, 53, 58); stroke-miterlimit: 10; transform-origin: 326.564px 332.459px;" id="elmqkdy11oyfd" class="animable"></path><line x1="293.67" y1="323.87" x2="293.67" y2="327.17" style="fill: none; stroke: rgb(46, 53, 58); stroke-linecap: round; stroke-linejoin: round; transform-origin: 293.67px 325.52px;" id="elgvko14snxbb" class="animable"></line><line x1="293.67" y1="304.45" x2="293.67" y2="321.67" style="fill: none; stroke: rgb(46, 53, 58); stroke-linecap: round; stroke-linejoin: round; transform-origin: 293.67px 313.06px;" id="el8o8vebg2wkn" class="animable"></line><line x1="295.63" y1="340.7" x2="295.63" y2="397.15" style="fill: none; stroke: rgb(46, 53, 58); stroke-linecap: round; stroke-linejoin: round; transform-origin: 295.63px 368.925px;" id="ela6i3xsivnc" class="animable"></line><path d="M295.29,309v29.25s.76,0,1.14-2.09-.38-6.27.57-8,2.28-2.85,2.85-4.56-1.33-3-.57-5.88,4-1.33,3.41-5.13c-.3-2-2.51-2.71-4.06-3.59a2.55,2.55,0,0,1-1.21-1.1c-.31-.79.67-2.57,0-3.14s-1.68.35-2,1C295,306.73,295.29,308.08,295.29,309Z" style="fill: rgb(255, 255, 255); stroke: rgb(46, 53, 58); stroke-miterlimit: 10; transform-origin: 298.977px 321.416px;" id="elvq5r1k0vjg" class="animable"></path></g><defs>     <filter id="active" height="200%">         <feMorphology in="SourceAlpha" result="DILATED" operator="dilate" radius="2"></feMorphology>                <feFlood flood-color="#32DFEC" flood-opacity="1" result="PINK"></feFlood>        <feComposite in="PINK" in2="DILATED" operator="in" result="OUTLINE"></feComposite>        <feMerge>            <feMergeNode in="OUTLINE"></feMergeNode>            <feMergeNode in="SourceGraphic"></feMergeNode>        </feMerge>    </filter>    <filter id="hover" height="200%">        <feMorphology in="SourceAlpha" result="DILATED" operator="dilate" radius="2"></feMorphology>                <feFlood flood-color="#ff0000" flood-opacity="0.5" result="PINK"></feFlood>        <feComposite in="PINK" in2="DILATED" operator="in" result="OUTLINE"></feComposite>        <feMerge>            <feMergeNode in="OUTLINE"></feMergeNode>            <feMergeNode in="SourceGraphic"></feMergeNode>        </feMerge>            <feColorMatrix type="matrix" values="0   0   0   0   0                0   1   0   0   0                0   0   0   0   0                0   0   0   1   0 "></feColorMatrix>    </filter></defs></svg>